/* XPM */
static char *_520c790d0da40bdb91e8a13e4f9b172H9ZYZi4BVqfuIBlA[] = {
/* columns rows colors chars-per-pixel */
"32 32 183 2 ",
"   c None",
".  c black",
"X  c #010000",
"o  c #000100",
"O  c #010100",
"+  c #000001",
"@  c #010001",
"#  c #000101",
"$  c #010101",
"%  c #020000",
"&  c #030100",
"*  c #020001",
"=  c #020101",
"-  c #030101",
";  c #000300",
":  c #010300",
">  c #010201",
",  c #010301",
"<  c #000002",
"1  c #010002",
"2  c #010102",
"3  c #020002",
"4  c #000202",
"5  c #020202",
"6  c #030202",
"7  c #020302",
"8  c #000400",
"9  c #010401",
"0  c #010402",
"q  c #040702",
"w  c #010900",
"e  c #010901",
"r  c #030900",
"t  c #030901",
"y  c #020A02",
"u  c #040D02",
"i  c #040D04",
"p  c #011001",
"a  c #021001",
"s  c #031001",
"d  c #031101",
"f  c #041001",
"g  c #001400",
"h  c #011401",
"j  c #031602",
"k  c #051403",
"l  c #041603",
"z  c #011A00",
"x  c #031A01",
"c  c #021B01",
"v  c #061A03",
"b  c #061B03",
"n  c #031F01",
"m  c #061D02",
"M  c #002001",
"N  c #012001",
"B  c #012101",
"V  c #022001",
"C  c #032301",
"Z  c #042500",
"A  c #012801",
"S  c #022800",
"D  c #022B01",
"F  c #0B2D06",
"G  c #013501",
"H  c #033402",
"J  c #083702",
"K  c #033900",
"L  c #093F03",
"P  c #093A04",
"I  c #772500",
"U  c #7F2600",
"Y  c #673700",
"T  c #004200",
"R  c #024300",
"E  c #074303",
"W  c #034400",
"Q  c #054402",
"!  c #064403",
"~  c #0C4704",
"^  c #024B01",
"/  c #004C00",
"(  c #004D00",
")  c #004E00",
"_  c #084D02",
"`  c #094D02",
"'  c #084C06",
"]  c #015400",
"[  c #045701",
"{  c #0A5204",
"}  c #005B00",
"|  c #075903",
" . c #055A02",
".. c #005C00",
"X. c #005F00",
"o. c #015F00",
"O. c #035E01",
"+. c #045E00",
"@. c #055E00",
"#. c #045F01",
"$. c #065E01",
"%. c #055D02",
"&. c #045D04",
"*. c #0B5C03",
"=. c #036101",
"-. c #016200",
";. c #006300",
":. c #016400",
">. c #006700",
",. c #026600",
"<. c #0C6504",
"1. c #006800",
"2. c #006900",
"3. c #006A00",
"4. c #006B00",
"5. c #006F00",
"6. c #096D02",
"7. c #086F04",
"8. c #007000",
"9. c #007100",
"0. c #007200",
"q. c #067002",
"w. c #007400",
"e. c #007500",
"r. c #017500",
"t. c #027400",
"y. c #027500",
"u. c #007600",
"i. c #037701",
"p. c #057501",
"a. c #087205",
"s. c #007A00",
"d. c #007B00",
"f. c #037B01",
"g. c #007D00",
"h. c #037C01",
"j. c #007E00",
"k. c #037C02",
"l. c #047C01",
"z. c #0B7B00",
"x. c #087D00",
"c. c #891600",
"v. c #881700",
"b. c #941000",
"n. c #A90000",
"m. c #AA0000",
"M. c #008000",
"N. c #018000",
"B. c #008100",
"V. c #008200",
"C. c #008300",
"Z. c #018300",
"A. c #068201",
"S. c #008400",
"D. c #008500",
"F. c #068502",
"G. c #078602",
"H. c #078603",
"J. c #088602",
"K. c #008800",
"L. c #008900",
"P. c #008B00",
"I. c #068A01",
"U. c #068B02",
"Y. c #008C00",
"T. c #008D00",
"R. c #008E00",
"E. c #008F00",
"W. c #068C01",
"Q. c #068E02",
"!. c #009100",
"~. c #009400",
"^. c #009500",
"/. c #009600",
"(. c #009700",
"). c #019700",
"_. c #009800",
"`. c #009900",
"'. c #009A00",
"]. c #009B00",
"[. c #019B00",
"{. c #009C00",
"}. c #009D00",
/* pixels */
"                                                                ",
"                    $ $ $ $ $ $ $ $ $ $ $ $ $ $                 ",
"                1 1 ` ` _ ` _ ` _ ` _ _ ` _ _ F $               ",
"                $ $ B.B.B.B.B.B.B.B.B.B.B.B.B.` $               ",
"              $ a.i.B.P.].].].].].].].].].].]./.Q.t $           ",
"              $ k.B.B.P.].].].].].].].].].].}.].].t $           ",
"              $ l.B.}.].].].].}.].}.}.].].].].}.].t $           ",
"              $ g.B.!.!.E.].}.}.].]./.!.E.!.!./.}.t $           ",
"              $ s.B.B.B.B.].].].].}.P.B.B.B.B.P.].t $           ",
"  $ $ $ $     $ l.x.c.Y /.].].}.}.].]./.c.I /.].].t $     $ $ $ ",
"  $ $ $ $     $ k.x.m.v.}.}.}.}.].].].].m.b.}.}.].t $     $ $ $ ",
"$ K ) $ $     $ k.P.}.}.].9.1.1.1.>.P.}.].}.].].].t $     $ ] >.",
"$ R ..j k   $ $ k.D././.E.e.9.1.1.9.B.!.}.}.}.}.].t $   u b >.e.",
"$ +.B.) ^ $ $ $ k.B.B.s.1.g.B.1.1.B.9.>.}.}.}.].].t $ $ D 1.!.].",
"$ +.B.g.s.W C $ d j B.s.1.g.B.1.1.B.9.1.D.D.B.[ g $ $ ..e./.].].",
"$ +.B.B.B.) S $ $ 9 B.g.1.g.B.1.4.B.9.1.B.B.B.' $ $ $ 1.g.].}.].",
"  $ $ B.B.B.>.^ 9 9 1.1.>.g $ 1.=.$ Q 1.1.&.$ $ $ =.1.}.}.}.C $ ",
"  $ $ 7.q.q.+.) $ 9  ...1.u $ 1...$ Q 1.| { k i $ >.1.J.J.H.n $ ",
"      $ $ $ Z ) 9 $ $ x 1.d $ 1.=.$ Q 1.$ d }.*.$ =.>.$ $ $     ",
"            y g +.+.$ q x <.e.x C e.P c 9.6.D ~ e.n x           ",
"              $ k.g.6 6 6 H.}.$ g ].J 6 ].U.$ L ].t $           ",
"              $ k.g.$ n B./.}.].].].}.].}.Q.$ L ].t $           ",
"              $ g.g.$ c B.].].}.}.].].].].J.$ L ].t $           ",
"              $ k.g.$ C B.B.B.].].g.B.B.B.i.$ L ].t $           ",
"                H H $ C B.E.!.E.E.!.!.!.!.A.$ b R               ",
"                        g./.}.B.B.].}.}.}.U.                    ",
"                                                                ",
"                                                                ",
"                                                                ",
"                                                                ",
"                                                                ",
"                                                                "
};
