/* XPM */
static char *_f64cc332e904c16e5a45b04c667ee6egrH0nAdKXNWJzcE1[] = {
/* columns rows colors chars-per-pixel */
"32 32 165 2 ",
"   c None",
".  c #030203",
"X  c #0B0711",
"o  c #0C0913",
"O  c #0F0B18",
"+  c #110C13",
"@  c #110C19",
"#  c #161016",
"$  c #16101C",
"%  c #1A131B",
"&  c #150E20",
"*  c #191224",
"=  c #1B142C",
"-  c #151124",
";  c #1F1631",
":  c #211721",
">  c #231823",
",  c #201728",
"<  c #22192A",
"1  c #221936",
"2  c #291D37",
"3  c #261C3C",
"4  c #2E212E",
"5  c #2E2138",
"6  c #30233F",
"7  c #3C2B3C",
"8  c #332437",
"9  c #291E42",
"0  c #2D2145",
"q  c #31244C",
"w  c #332552",
"e  c #372855",
"r  c #3B2B52",
"t  c #372A59",
"y  c #3B2B5D",
"u  c #3D2D62",
"i  c #412E41",
"p  c #43304B",
"a  c #4A344B",
"s  c #4B355D",
"d  c #583E5A",
"f  c #523A53",
"g  c #453260",
"h  c #44326D",
"j  c #4F396D",
"k  c #4C3664",
"l  c #583E67",
"z  c #543C60",
"x  c #463370",
"c  c #493575",
"v  c #4B3678",
"b  c #4D397B",
"n  c #563E7B",
"m  c #60445F",
"M  c #5F4364",
"N  c #5F4474",
"B  c #5A417C",
"V  c #674968",
"C  c #654778",
"Z  c #765375",
"A  c #70507A",
"S  c #795578",
"D  c #523C83",
"F  c #563F8B",
"G  c #59418D",
"H  c #5A4185",
"J  c #5C4394",
"K  c #5F4699",
"L  c #61468A",
"P  c #6B4D8C",
"I  c #7E5988",
"U  c #604694",
"Y  c #61469B",
"T  c #63489E",
"R  c #684B94",
"E  c #6F509E",
"W  c #705194",
"Q  c #7B589A",
"!  c #664AA2",
"~  c #6B4EAB",
"^  c #694DA3",
"/  c #6F50A3",
"(  c #7756AE",
")  c #6F51B2",
"_  c #7253B4",
"`  c #7857B0",
"'  c #7556BB",
"]  c #7957C0",
"[  c #7B5AC4",
"{  c #7E5CCA",
"}  c #835D8A",
"|  c #855E84",
" . c #8E648C",
".. c #8D6497",
"X. c #9A6D98",
"o. c #8962AA",
"O. c #9C6FA7",
"+. c #8D65B1",
"@. c #956AB1",
"#. c #A474A2",
"$. c #A676B8",
"%. c #815ECD",
"&. c #9168C0",
"*. c #9A6FCA",
"=. c #936ACB",
"-. c #9B70CF",
";. c #8561D4",
":. c #8762D9",
">. c #8A64DB",
",. c #986DD0",
"<. c #926AD9",
"1. c #A576C7",
"2. c #A273CB",
"3. c #A375DA",
"4. c #B17ED3",
"5. c #B07EDD",
"6. c #8E68E4",
"7. c #9069E6",
"8. c #936BEB",
"9. c #996FEE",
"0. c #976EF0",
"q. c #9B72F7",
"w. c #9F74FE",
"e. c #A275E7",
"r. c #A979E3",
"t. c #A074EF",
"y. c #AC7CEC",
"u. c #AB7CF3",
"i. c #A176FE",
"p. c #A679FF",
"a. c #AB7CFF",
"s. c #A175F2",
"d. c #B07FFE",
"f. c #BD85BB",
"g. c #B380D8",
"h. c #BE87D9",
"j. c #BD87E3",
"k. c #B482ED",
"l. c #B582F3",
"z. c #B482FD",
"x. c #BA86FB",
"c. c #BE89FD",
"v. c #C38AC1",
"b. c #CF92CD",
"n. c #D193CF",
"m. c #C88EDB",
"M. c #CF92D7",
"N. c #D898D7",
"B. c #D798D6",
"V. c #C38BEC",
"C. c #C38BE0",
"Z. c #D697E0",
"A. c #C28BFC",
"S. c #C18AF4",
"D. c #CC92FD",
"F. c #CE93F1",
"G. c #DB9BF3",
"H. c #D799FC",
"J. c #DB9CFB",
"K. c #EFA8EC",
"L. c #F1A9EE",
"P. c #E6A2F0",
"I. c #E4A2FD",
"U. c #F5ADF2",
"Y. c #FCB2F9",
/* pixels */
"                                                                ",
"                          3 1                     7 7           ",
"                        N.P.V.F X             . v.U.Y.b.        ",
"                        X.. s r.[ h           + . . f.L.>       ",
"                      Z  .+ % A k.:.!     $  .      . U.i       ",
"                      8 a X.I N J i.[ k Z V %       . U.i       ",
"                      6 7 V , @ U i.>.r | m 2       . U.i       ",
"                      9 M $.B % R i.c i : . Y       4 L.7       ",
"                      G T % @ * ~ q.G f : = ~       #.f.        ",
"                    3 ) b + * F 9.;.o.z O D {     % B.4         ",
"                    C =.0 @ 9 / E j = B 0 D :.t 4 7 #.          ",
"                    n.J.>.F y 5 : d 7 W r n 8.w i >             ",
"                    N.I.x.i.z.@.S M % h 1 D 8.w                 ",
"                    M.H.D.w.y.O.| N u e O D 8.w                 ",
"                    g.A.a.d.1.p t ' 8.D o D >.u                 ",
"                    <.z.p.5.} q J w.w.~ ; T >.u                 ",
"                    3.z.x.4.H w ! w.w.;.Y >.7.u                 ",
"                  s k.D.m.-._ b :.w.w.w.w.w.>.                  ",
"                  e z.h.+.:.) T w.w.w.w.w.w.>.                  ",
"                  2 P Q ;.{ G ;.w.w.w.w.w.w.G                   ",
"                  9 ~ ) :.J { w.w.w.i.w.[ ;.v                   ",
"                3 [ q.7.7.;.i.w.w.c.x.%.y ' h                   ",
"                n c.p.z.p.z.a.w.z.S.u.7.e v !                   ",
"                ! p.z.I.J.l.8.a.D.A.w.J K x ~                   ",
"              _ F p.4. .G.9.e.F.j.s.w.;.>.! u                   ",
"            1 ' ,.x.3...H.z.x.j.3.<.>.6.x K 9                   ",
"            o 0 u.Z.m.V.p.x.J.z.u.( ' u.s ) q                   ",
"            @ ;.<.<.` p.a.D.2.@.x._ q F { [ _                   ",
"          o c - w ;.[ -.G.A.q.q.^ v ) ! 0 F w                   ",
"          w     3 ~ / x.r.;.i.8._   x u & 9                     ",
"        1 @     1 ' ] 0.q.~ D K   w ! t                         ",
"                      = 1 = ;                                   "
};
