/* XPM */
static char *_f916dc940fe4c64fb3c2d3531dc3eb5bH3TvOtog5XRqUe5[] = {
/* columns rows colors chars-per-pixel */
"32 32 74 1 ",
"  c None",
". c black",
"X c #010000",
"o c #010100",
"O c #020100",
"+ c #050400",
"@ c #070601",
"# c #090700",
"$ c #0A0800",
"% c #0C0A00",
"& c #0D0B00",
"* c #0F0C00",
"= c #0A0904",
"- c #100E00",
"; c #151100",
": c #1B1600",
"> c #1D1800",
", c #292200",
"< c #2B2500",
"1 c #382F00",
"2 c #3E3400",
"3 c #3F3500",
"4 c #443800",
"5 c #473B00",
"6 c #4D4000",
"7 c #594A00",
"8 c #5A4A00",
"9 c #5A4B00",
"0 c #685600",
"q c #685700",
"w c #6C5A00",
"e c #6D5B00",
"r c #6A5A04",
"t c #736000",
"y c #756200",
"u c #796500",
"i c #7D6A00",
"p c #816B00",
"a c #836D00",
"s c #8D7700",
"d c #887304",
"f c #8F7900",
"g c #957C00",
"h c #88781F",
"j c #998000",
"k c #9A8000",
"l c #9F8500",
"z c #A58900",
"x c #B09300",
"c c #B29600",
"v c #B89900",
"b c #BA9D00",
"n c #AF9A28",
"m c #C7A600",
"M c #CFAC00",
"N c #D3B000",
"B c #D5B200",
"V c #D6B200",
"C c #D8B600",
"Z c #DAB800",
"A c #DDBB00",
"S c #DFBC00",
"D c #E0BA00",
"F c #E0BD00",
"G c #E2BC00",
"H c #E5BE00",
"J c #E8C100",
"K c #E9C200",
"L c #ECC400",
"P c #ECC500",
"I c #EDC600",
"U c #EEC600",
"Y c #B8A749",
"T c #EED95F",
/* pixels */
"                                ",
"                                ",
"             199                ",
"            $KKKx               ",
"            a9XXB-              ",
"            A&A32:              ",
"           5tcGCyl              ",
"          +s9bGCi<f             ",
"          vIIIILIID#            ",
"         ;GIUUIIIUI6            ",
"         5IIUUIIIUIK            ",
"         5UUUUUIUUIK            ",
"         5Ia$dddr@IK            ",
"         5Ip@nnnhXIK            ",
"        X9IX=TTTYX9K&           ",
"        XIIX#BBBzX9Ie           ",
"        XIIXKUUUI:9Ie           ",
"        XILXKUUUI:9Ie           ",
"        XIIeUUUUUU9Ie           ",
"        XIIeUUUUUL9Ie           ",
"        XIyeUUUUUU,Ke           ",
"         4-eUUUUUUXM            ",
"          XmUUUUUU0             ",
"          XIUUUIUUg             ",
"          XUUUIIUUg             ",
"          XmUUIIUI0             ",
"           eJjIIUIX             ",
"            uXG>g:              ",
"             XB +               ",
"             XM                 ",
"              X                 ",
"                                "
};
