/* XPM */
static char *bcfc12e032044de7a9981d15cac46514gBGbTsSIo23cXAXZ[] = {
/* columns rows colors chars-per-pixel */
"32 32 135 2 ",
"   c None",
".  c #646264",
"X  c #686568",
"o  c #6C6B6A",
"O  c #706F69",
"+  c #74736C",
"@  c #797769",
"#  c #7C7B6E",
"$  c #757472",
"%  c #787773",
"&  c #7B7A74",
"*  c #7E7E79",
"=  c #807F72",
"-  c #807F79",
";  c #85836C",
":  c #88866E",
">  c #8B896F",
",  c #838274",
"<  c #888776",
"1  c #8D8C72",
"2  c #84847C",
"3  c #8C8C7B",
"4  c #908F74",
"5  c #919175",
"6  c #94937B",
"7  c #878680",
"8  c #8E8E83",
"9  c #939384",
"0  c #9B9B84",
"q  c #959688",
"w  c #9E9D89",
"e  c #9C9D91",
"r  c #A09F8A",
"t  c #9CA083",
"y  c #9EA18A",
"u  c #A1A086",
"i  c #A2A38D",
"p  c #A7A88F",
"a  c #A5A691",
"s  c #A7A993",
"d  c #A9AB95",
"f  c #ABAD99",
"g  c #A6B194",
"h  c #A9B296",
"j  c #ADB29B",
"k  c #B1B49F",
"l  c #B3BA9E",
"z  c #AFB2A1",
"x  c #B2B5A1",
"c  c #B5BBA4",
"v  c #B9BDA9",
"b  c #B6C0A7",
"n  c #B9C1A6",
"m  c #B6C6A9",
"M  c #BBC4AB",
"N  c #BDCAAE",
"B  c #BEC4B0",
"V  c #BECCB0",
"C  c #C1CEB2",
"Z  c #C6D0B7",
"A  c #C1D4B6",
"S  c #C2D4B6",
"D  c #C2D4B7",
"F  c #C2D5B7",
"G  c #C3D5B7",
"H  c #C4D5B7",
"J  c #C1D2B4",
"K  c #C2D1B8",
"L  c #C2D5B8",
"P  c #C3D4B9",
"I  c #C2D6B8",
"U  c #C2D7B9",
"Y  c #C4D7B8",
"T  c #C4D5BA",
"R  c #C4D7BB",
"E  c #C7D7BB",
"W  c #C3D6B8",
"Q  c #C2D8BA",
"!  c #C3D8BA",
"~  c #C2D9BA",
"^  c #C3D9BB",
"/  c #C4D9BB",
"(  c #C6D8BB",
")  c #C3DABC",
"_  c #C4DABC",
"`  c #C5DABC",
"'  c #C4DBBD",
"]  c #C5DBBD",
"[  c #C6DBBD",
"{  c #C6DBBE",
"}  c #C4DCBD",
"|  c #C4DCBE",
" . c #C6DCBE",
".. c #C6DDBF",
"X. c #C7DDBF",
"o. c #C5DBBD",
"O. c #C7DEC0",
"+. c #C6DFC0",
"@. c #C7DFC0",
"#. c #CADAC0",
"$. c #C8DDC0",
"%. c #C9DEC1",
"&. c #CDDFC3",
"*. c #C9E0C1",
"=. c #C9E0C2",
"-. c #C9E1C2",
";. c #CAE0C3",
":. c #CBE0C3",
">. c #C9E2C3",
",. c #CDE1C5",
"<. c #CEE1C4",
"1. c #CDE2C5",
"2. c #CEE3C6",
"3. c #CDE4C6",
"4. c #C9E2C3",
"5. c #D0E5C9",
"6. c #D1E5CA",
"7. c #D1E6CA",
"8. c #D2E6CA",
"9. c #D2E6CB",
"0. c #D3E7CC",
"q. c #D3E8CC",
"w. c #D3E9CD",
"e. c #D4E8CC",
"r. c #D4E8CD",
"t. c #D4E9CD",
"y. c #D5E9CE",
"u. c #D6E9CF",
"i. c #D5EBCF",
"p. c #D6EACF",
"a. c #D7EBD0",
"s. c #D7ECD1",
"d. c #D8ECD1",
"f. c #D8EDD2",
"g. c #DAEFD4",
/* pixels */
"                        5 i r r 0 r r <                         ",
"                      y n n C C Z C C l 0                       ",
"                  u p n H A -.t.g.t.E Z l d 0                   ",
"                i p N C J X.t.u.u.u.t.X.A M c 0                 ",
"            1 6 h C C J $.r.t.t.t.u.t.t.E C C N a               ",
"          . w n m J c H t.a.a.t.u.t.t.d.C n J A M 3             ",
"          7 x C N c v #.d.t.t.a.t.t.u.d.K c c b n f -           ",
"        2 f c v k a m <.a.t.8.8.t.u.t.u.<.N y y j B z +         ",
"        6 j j s d N N <.d.e.| ^ <.d.t.i.-.W m a e x x >         ",
"      + > 4 y i s V W ..X...^ <.t.t.t.i.-.W N y y 0 4 : o       ",
"    & a j g f j c N o...^ o.2.t.a.t.i.2.@.W V c j f h h q %     ",
"  O w v -.4.B V S J A ^ ^ ..8.8.8.8.7.} ) V V V M K -...k 9 o   ",
"$ < s M C ^ V A } o.V A ..o.^ ^ | ) ) | } V 4.} V N N C M r < o ",
"o 0 x v v s V ..o.^ ^ J A ..} J J ..| C V V | } ..v d M v d 8 o ",
"o w d x v i N @.o.o...b l W A M N W J j N *.} ^ @.c a v v v w X ",
"& i s p s i m | ) o.A j s c c c c c c i v U } } ^ l i d v v a + ",
"5 w a 6 : a n H ( T v a r r i c j i i i f M | ^ C x 0 > k a 0 1 ",
"1 + , > 4 c v m C C d 6 6 a v c v x i 1 0 j J C n v d < 4 @ = 4 ",
"5 + @ 0 V N v v v d 6 6 a c N C N M x r 6 0 j v v M V m 5 O = 4 ",
"# # < j 4.U N M x 6 : 0 z C C J J C M f 5 1 0 v M V $.| y ; , & ",
"o 6 0 z | | T M d < > 6 f V N M N N M i 5 1 5 x V ^ ..U d 0 < o ",
"+ y i j C | X.v 0 1 1 > 0 v c v c v c 5 > 1 1 i V ..U M a a q o ",
"1 i i f v n B s 1 1 : 6 a a a a a a a i 5 : 1 5 x M v v p p r : ",
"1 i a a f v p < @ 4 s c f r i a i a k x k i : + 5 k v s i s i > ",
"6 0 i i i k 3 O o 1 j v v f 0 0 i x M v v p : o + w j i a w 0 1 ",
"1 > 0 p a y % o # 5 y j v j 1 ; r c x c d 0 < + o 2 i a a 6 > 1 ",
"  1 i s i 5 + # 5 p i s 0 1 1 + # 4 1 i i a y 1 + # 6 p a u 1   ",
"    5 0 * & o < s s s s 0 1 + O O @ 5 i s s s p % + & 2 0       ",
"            o 7 q 8 8 9 7 2 $ $ $ % 2 8 9 8 8 9 2 o             ",
"            + o X X X X X o O O O o o X X X X X o               ",
"                                                                ",
"                                                                "
};
