/* XPM */
static char *_1db7f97ba5644c28f0531c5c0d3e699oGzs9SguSFqaOm86[] = {
/* columns rows colors chars-per-pixel */
"32 32 122 2 ",
"   c None",
".  c #414141",
"X  c #4D4D4D",
"o  c #4F5050",
"O  c #535353",
"+  c #5B5C5C",
"@  c #646363",
"#  c #686767",
"$  c #676868",
"%  c #6C6C6C",
"&  c #737373",
"*  c #787777",
"=  c #787877",
"-  c #777879",
";  c #7B7B7C",
":  c #817F7F",
">  c #7D7E80",
",  c #7F8081",
"<  c #828384",
"1  c #858788",
"2  c #87898B",
"3  c #8D8D8E",
"4  c #908F8F",
"5  c #8D8F91",
"6  c #8F9192",
"7  c #939394",
"8  c #96989A",
"9  c #9B9B9B",
"0  c #9D9FA0",
"q  c #9FA0A1",
"w  c #A2A3A4",
"e  c #A6A7A8",
"r  c #A6A9AA",
"t  c #AAACAD",
"y  c #ADAFB1",
"u  c #AEB1B3",
"i  c #B1B4B6",
"p  c #B4B7B9",
"a  c #B6BABD",
"s  c #B8BCBE",
"d  c #BABEC1",
"f  c #BDC1C4",
"g  c #C0C4C7",
"h  c #C2C6C9",
"j  c #C4C8CC",
"k  c #C5C9CC",
"l  c #C5C9CD",
"z  c #C5CACD",
"x  c #C6CACE",
"c  c #C7CBCF",
"v  c #C7CCCF",
"b  c #C6CACD",
"n  c #C8CCCF",
"m  c #C8CCCF",
"M  c #C7CCD0",
"N  c #C8CCD0",
"B  c #C8CDD1",
"V  c #CACED1",
"C  c #C9CED2",
"Z  c #CACFD2",
"A  c #CBCFD3",
"S  c #C9CED2",
"D  c #CBD0D3",
"F  c #CBD0D4",
"G  c #CCD0D4",
"H  c #CCD1D4",
"J  c #CCD1D5",
"K  c #CDD1D5",
"L  c #CDD2D5",
"P  c #CDD2D6",
"I  c #CED2D6",
"U  c #CED3D6",
"Y  c #CFD4D7",
"T  c #CDD2D5",
"R  c #CFD4D8",
"E  c #D0D4D8",
"W  c #D0D5D8",
"Q  c #D0D5D9",
"!  c #D1D5D9",
"~  c #D1D6DA",
"^  c #D1D6DB",
"/  c #D2D6DA",
"(  c #D2D7DA",
")  c #D2D7DB",
"_  c #D3D7DB",
"`  c #D0D5D9",
"'  c #D3D8DB",
"]  c #D3D8DC",
"[  c #D4D9DD",
"{  c #D5D9DD",
"}  c #D5DADE",
"|  c #D6DBDF",
" . c #D6DCDF",
".. c #D4D9DD",
"X. c #D7DCE0",
"o. c #D7DDE0",
"O. c #D7DDE1",
"+. c #D7DCE0",
"@. c #D8DDE1",
"#. c #D8DEE2",
"$. c #D9DEE2",
"%. c #D9DEE3",
"&. c #D9DFE3",
"*. c #DADFE3",
"=. c #D8DEE2",
"-. c #DBE0E4",
";. c #DBE0E5",
":. c #DCE1E5",
">. c #DCE1E6",
",. c #DCE2E7",
"<. c #DDE3E7",
"1. c #DEE3E7",
"2. c #DBE1E5",
"3. c #DEE3E8",
"4. c #DEE4E9",
"5. c #DFE4E9",
"6. c #E0E5E9",
"7. c #E0E5EA",
"8. c #E1E7EB",
"9. c #E2E7EC",
"0. c #E4E9EE",
"q. c #E7EDF1",
/* pixels */
"                            . . . . . . . . .                   ",
"                          . O O o o o o O o .                   ",
"                        . ; 8 8 5 6 7 5 6 ; @ .                 ",
"                      . @ w E ] A A A N f r - X .               ",
"                    . O , p *.0.7.9.8.<. .j r > @ .             ",
"                  . + = 7 i x / %.>.-.-.O.' R f 7 + .           ",
"                . X % 7 t p d l ! ' ! ! ! ..7.:.u % X .         ",
"        . . . . . . % w d d s g j l j j j l Y H r - O O . .     ",
"      . o O + o X @ & r g d d d a d s s s s f d q , $ + X .     ",
"    . + & 3 7 7 2 , > 0 u s d d a s a s s s f d y 6 = # X .     ",
"  . . $ 0 f C P l p r , : u d d d d s s s s f s u q < # X .     ",
". + $ 7 s ' <.4.%.P f y : : i p d d f d f d a i t w 3 % O . . . ",
". - q f F +.O.O.+.] ! P g r : r d f f f f s u q 9 9 4 ; # O o . ",
". 2 p R +.O.O.} +.+.%.3.E i : e p p p p a i w : : 9 4 ; % @ O . ",
". 1 p P ^ O.O.} ..+.@.%...A d u w w w e w w 9 : : 7 3 * # @ O . ",
". , i M ^ O.} } ........| *.| s 9 ; < > 7 9 9 9 9 0 7 < % @ X . ",
". < i A ..@.O.+. .@. . .-.4.-.j t 9 < : 9 r u a s s p i 9 - o . ",
". < i C } O.+.+... ... . .@...D d t : : t d C ! ../ ..-.C 3 X . ",
". ; r f l P R H P P P Y D j f a i : t i f C ] %.-.@.7.q.} 7 O . ",
". & 8 t d f f f f f f g f t : : : t g E ! ! ....| | @.0.P 6 X . ",
". % 3 w p d s a s s a p u w : : 9 a / 6.@.@... ... .O.:.l 5 X . ",
". & 4 r i d d s s s p w w r u a h G | *.@.@.@. .@.-.O.} d 1 o . ",
". & 7 w a d d d d d u : : t f D .. .................P l u , o . ",
". & 7 r p d d d f d y : : t f j C C x x x x n l g s i i q - X . ",
". % 4 e a f s s s d i : : t d f d d d d d d g d y 9 7 0 7 & o . ",
". * 9 t a s f d f f i : : t d s a s s s s s s s t 9 7 9 4 & o . ",
". = 9 t a f d s f f i : : u s f d s s s s s d s y 9 7 9 4 & X . ",
". . 4 r p h g g s s t : : p g g f f f f g f g g i w 9 w 9 * o . ",
"        s W W l s i : q r s v C n l n v m x A x s e w e 9 : O . ",
"        s d f s t : : : 0 u d f d d d s s f d d y 9 9 0 4 % o . ",
"                                                                ",
"                                                                "
};
