/* XPM */
static char *_6d28fdde4434830d266c7f18b60f572ha7NYo7baIVWQa9C[] = {
/* columns rows colors chars-per-pixel */
"32 32 3 1 ",
"  c #005BC4",
". c #0065E0",
"X c #1483F2",
/* pixels */
"                  .             ",
"                 . .            ",
"                                ",
"                                ",
"          X                     ",
"         . .                 X  ",
"                            . . ",
"                                ",
"                                ",
"                                ",
" X                              ",
". .                             ",
"                          X     ",
"              .          . .    ",
"             . .                ",
"                                ",
"                                ",
"                                ",
"                                ",
"    .                           ",
"   . .            X             ",
"                 . .            ",
"                             .  ",
"                            . . ",
"                                ",
"                                ",
"         X                      ",
"        . .                     ",
"  X             .               ",
" . .           . .              ",
"                                ",
"                           X    "
};
