/* XPM */
static char *c3a6140f491f498f8c86b7fcdc8a84477ao6xh6uIhgl5sRM[] = {
/* columns rows colors chars-per-pixel */
"32 32 4 1 ",
"  c None",
". c #005BC4",
"X c #0065E0",
"o c #1483F2",
/* pixels */
"                                ",
"                                ",
"                                ",
"                                ",
"                                ",
"                                ",
"                                ",
"                                ",
"                                ",
"                                ",
"                                ",
"                                ",
"                                ",
"                                ",
"                                ",
"..................X.............",
".................X.X............",
"................................",
"................................",
"..........o.....................",
".........X.X.................o..",
"............................X.X.",
"................................",
"................................",
"................................",
".o..............................",
"X.X.............................",
"..........................o.....",
"..............X..........X.X....",
".............X.X................",
"................................",
"................................"
};
