/* XPM */
static char *e3b476dba08f4ba0c12c87d939e2a706ed3T9JUNaaW6br6N[] = {
/* columns rows colors chars-per-pixel */
"32 32 232 2 ",
"   c None",
".  c #020202",
"X  c gray1",
"o  c #040404",
"O  c #040405",
"+  c #060606",
"@  c #060607",
"#  c gray3",
"$  c #0B090B",
"%  c #0B0B0B",
"&  c #09090D",
"*  c #0B0A0C",
"=  c #0B0A0D",
"-  c #0C0A0D",
";  c #0C0A0E",
":  c #0C0C0C",
">  c gray5",
",  c #0D0C0F",
"<  c #0C0E0E",
"1  c #070812",
"2  c #070A13",
"3  c #0E0D12",
"4  c #0E0D13",
"5  c #0F0D13",
"6  c #0C0D1A",
"7  c #100E13",
"8  c #110F16",
"9  c #0F101F",
"0  c #111016",
"q  c #151316",
"w  c #16131B",
"e  c #15131C",
"r  c #1A181E",
"t  c #1A181F",
"y  c #0C0F20",
"u  c #171123",
"i  c #161222",
"p  c #191620",
"a  c #1D1A24",
"s  c #1E1B25",
"d  c #1E1B26",
"f  c #13172B",
"g  c #17162E",
"h  c #1D172C",
"j  c #1D172E",
"k  c #1E1930",
"l  c #1F1A31",
"z  c #171E38",
"x  c #181E3A",
"c  c #191F3D",
"v  c #211C28",
"b  c #201D28",
"n  c #211D29",
"m  c #221E2A",
"M  c #231D35",
"N  c #241E35",
"B  c #271E3D",
"V  c #232029",
"C  c #252130",
"Z  c #262130",
"A  c #272330",
"S  c #272331",
"D  c #272332",
"F  c #282434",
"G  c #27213F",
"H  c #2A213F",
"J  c #2E293A",
"K  c #2F2A3A",
"L  c #2F2A3B",
"P  c #302A3B",
"I  c #302C3D",
"U  c #322C3D",
"Y  c #322E3C",
"T  c #312C3E",
"R  c #332E3F",
"E  c #1D2849",
"W  c #2A2141",
"Q  c #332F42",
"!  c #332F43",
"~  c #30274B",
"^  c #32284F",
"/  c #363044",
"(  c #373044",
")  c #363145",
"_  c #373246",
"`  c #383146",
"'  c #3B344B",
"]  c #3C3748",
"[  c #3E384D",
"{  c #232A56",
"}  c #212E59",
"|  c #332851",
" . c #352B57",
".. c #26345F",
"X. c #293462",
"o. c #3E3364",
"O. c #35376E",
"+. c #2F3E7A",
"@. c #343F7B",
"#. c #423B54",
"$. c #443D56",
"%. c #453D56",
"&. c #463E57",
"*. c #473F59",
"=. c #44366D",
"-. c #44376D",
";. c #413B76",
":. c #4A3B76",
">. c #4A3B78",
",. c #4C3B79",
"<. c #4A3C78",
"1. c #4D3E7C",
"2. c #484058",
"3. c #48415B",
"4. c #49435C",
"5. c #49425E",
"6. c #4B435E",
"7. c #4A435F",
"8. c #4C435E",
"9. c #4B445D",
"0. c #4B445F",
"q. c #4B4460",
"w. c #4B4461",
"e. c #4D4561",
"r. c #4E4561",
"t. c #4E4562",
"y. c #4E4662",
"u. c #4F4763",
"i. c #4F4764",
"p. c #4F4864",
"a. c #534B6A",
"s. c #574D6D",
"d. c #574E6E",
"f. c #584F6F",
"g. c #595071",
"h. c #5A5071",
"j. c #645A7E",
"k. c #645A7F",
"l. c #513F81",
"z. c #3A488B",
"x. c #3A498F",
"c. c #364B91",
"v. c #384C94",
"b. c #394F99",
"n. c #3A4F9A",
"m. c #3B519E",
"M. c #3D55A3",
"N. c #3E55A4",
"B. c #3F56A7",
"V. c #4F4180",
"C. c #57458C",
"Z. c #594890",
"A. c #665A81",
"S. c #665D81",
"D. c #665C82",
"F. c #675D83",
"G. c #685C82",
"H. c #6A5D8C",
"J. c #71658F",
"K. c #756792",
"L. c #756893",
"P. c #766B95",
"I. c #786C9A",
"U. c #4058AB",
"Y. c #4259AE",
"T. c #435BB3",
"R. c #465FB9",
"E. c #6650A3",
"W. c #7159B4",
"Q. c #7E6EA4",
"!. c #7F72A2",
"~. c #4A66C6",
"^. c #4B67C6",
"/. c #4B67C8",
"(. c #4F6FD3",
"). c #5677E6",
"_. c #5677E7",
"`. c #5777E8",
"'. c #5778E8",
"]. c #577EED",
"[. c #577EEE",
"{. c #577FEF",
"}. c #5878EB",
"|. c #5979ED",
" X c #597AED",
".X c #597AEE",
"XX c #597BEE",
"oX c #587EED",
"OX c #8173A3",
"+X c #8174A4",
"@X c #8274A4",
"#X c #8677A9",
"$X c #3DB4FA",
"%X c #3FB4FA",
"&X c #3EB4FB",
"*X c #3CB6FB",
"=X c #3DB6FB",
"-X c #3BB9FC",
";X c #3CB8FC",
":X c #3FBDFC",
">X c #5581EF",
",X c #4F8FF1",
"<X c #5583F0",
"1X c #518BF0",
"2X c #4E91F1",
"3X c #4A9DF4",
"4X c #499EF6",
"5X c #46A4F6",
"6X c #46A5F7",
"7X c #43A9F7",
"8X c #40BEFC",
"9X c #41BFFC",
"0X c #42C1FC",
"qX c #46C5FC",
"wX c #46C6FC",
"eX c #46C6FD",
"rX c #47C7FD",
"tX c #50D0FD",
"yX c #50D3FD",
"uX c #61E6FE",
"iX c #64EAFE",
"pX c #67EEFF",
"aX c #68EEFF",
"sX c #69EFFF",
"dX c #9180B5",
"fX c #9281B6",
"gX c #9482B9",
"hX c #9483BA",
"jX c #9484BA",
"kX c #A28DD3",
"lX c #B09BDC",
"zX c #BCA6EA",
/* pixels */
"                                                                ",
"                                                                ",
"                                                                ",
"                                                                ",
"                          2 2 6                                 ",
"                      ..n.`..X.XB.m.E         7.7.u.@           ",
"                  * /..X.X.X.X.X.X.X}.c.    f.                  ",
"                  R..X.X<X&X*X3X>X.X.X.Xf   h.                  ",
"                } .X.X4X-XrXrX8X$X>X.X.XN.: u.:                 ",
"                m..X<X$XtXpXsXuX:X7X.X.X'.: 7.d           :     ",
"                N..X<X-XyXpXsXiX8X$X.X.X.XY.@ fXm       &.5     ",
"      Z Z       N..X.X6X-XrXrX0X$X2X.X.X.XT.  O kX      7.      ",
"  8 J.u.i.u.    M..X.XoX2X$X-X6X1X.X.X.X'.O.o.V.~   # I.        ",
"    ;     7.    c..X.X.X.X].].(./.^.x.9 6 C.h E.M u.gX7         ",
"          0.    x _..X'.z.c x ;.g { ^ -.M e h   H m             ",
"            D.    X.+.@.<.B W G  ..   <.W.#                     ",
"    q / T   e L.h 1.l.:.  u | O ,.    -.Q.T     &.A.            ",
"      K / #.5   i     H.    Z.* k N   [ d u.Q #XD *.5           ",
"          f.@X&.      a.m   p F.  fX# 2.V   D.t   8.e           ",
"            . zX      F u.  ' 2.  K.    A.j.t     p.            ",
"            . lX*   * A.    @X  K Z         d.    ;             ",
"              V @X/ jX]   7.T   ` P         0.d                 ",
"                  Q     D./     m u.        h.                  ",
"                        !.0       gX#     T /                   ",
"                          OX      5 P.    P                     ",
"                                                                ",
"                                                                ",
"                                                                ",
"                                                                ",
"                                                                ",
"                                                                ",
"                                                                "
};
