/* XPM */
static char *result[] = {
/* columns rows colors chars-per-pixel */
"32 32 127 2 ",
"   c #003C08",
".  c #5C0018",
"X  c #65001A",
"o  c #6E001D",
"O  c #7D0024",
"+  c #004105",
"@  c #004705",
"#  c #004A0E",
"$  c #005905",
"%  c #005A04",
"&  c #005A07",
"*  c #00520E",
"=  c #00560F",
"-  c #005F0C",
";  c #005911",
":  c #006403",
">  c #006605",
",  c #006C00",
"<  c #006208",
"1  c #007302",
"2  c #007401",
"3  c #007503",
"4  c #007907",
"5  c #00770F",
"6  c #007B08",
"7  c #007B0B",
"8  c #007C0A",
"9  c #007F0F",
"0  c #006313",
"q  c #007B10",
"w  c #007F15",
"e  c #800021",
"r  c #870024",
"t  c #890024",
"y  c #8F0026",
"u  c #830228",
"i  c #930023",
"p  c #900026",
"a  c #950026",
"s  c #960026",
"d  c #970026",
"f  c #9F0029",
"g  c #A4002A",
"h  c #A5002B",
"j  c #A6002B",
"k  c #AA002A",
"l  c #AC002A",
"z  c #AE002B",
"x  c #AF002B",
"c  c #B3002B",
"v  c #B5002B",
"b  c #B6002B",
"n  c #B3002C",
"m  c #B5002C",
"M  c #B6002C",
"N  c #BA002B",
"B  c #B8002C",
"V  c #B9002C",
"C  c #B8002D",
"Z  c #B9002D",
"A  c #BB002C",
"S  c #BA002D",
"D  c #BC002C",
"F  c #BD002C",
"G  c #BE002C",
"H  c #BF002C",
"J  c #C1002C",
"K  c #C1002D",
"L  c #C2002C",
"P  c #C2002D",
"I  c #C3002D",
"U  c #C5002C",
"Y  c #C4002D",
"T  c #C5002D",
"R  c #C6002D",
"E  c #C7002D",
"W  c #C5002E",
"Q  c #C6002E",
"!  c #C9002C",
"~  c #C8002D",
"^  c #CB002C",
"/  c #CA002D",
"(  c #C8002E",
")  c #CB002E",
"_  c #CC002D",
"`  c #CD002D",
"'  c #CE002D",
"]  c #CF002D",
"[  c #CD002E",
"{  c #CC002F",
"}  c #CE002E",
"|  c #D1002C",
" . c #D0002D",
".. c #D0002E",
"X. c #D0002F",
"o. c #D2002E",
"O. c #D3002E",
"+. c #D3002F",
"@. c #D4002E",
"#. c #D4002F",
"$. c #D6002E",
"%. c #D7002F",
"&. c #D8002F",
"*. c #D9002F",
"=. c #DC002F",
"-. c #DE002F",
";. c #DF002F",
":. c #D80030",
">. c #DA0030",
",. c #E20030",
"<. c #E40030",
"1. c #E70031",
"2. c #E80031",
"3. c #E90031",
"4. c #EA0030",
"5. c #EE0031",
"6. c #EF0031",
"7. c #F00031",
"8. c #F10031",
"9. c #F30032",
"0. c #F50032",
"q. c #F60032",
"w. c #F80031",
"e. c #FB0032",
"r. c #FA0033",
"t. c #008111",
"y. c None",
/* pixels */
"y.y.y.y.y.y.y.y.y.y.y.y.y.y.y.y.y.y.y.y.y.y.y.y.y.y.y.y.y.y.y.y.",
"y.y.y.y.y.y.y.y.y.y.y.y.y.y.y.y.y.y.y.y.y.y.y.y.y.y.y.y.y.y.y.y.",
"y.y.y.y.y.y.y.y.y.y.y.y.y.y.y.y.y.y.y.y.y.y.y.y.y.y.y.y.y.y.y.y.",
"y.y.y.y.y.y.y.y.y.y.y.t.w y.y.y.y.y.y.y.y.y.y.y.y.y.y.y.y.y.y.y.",
"y.y.y.y.y.y.y.y.y.y.3 y.y.q y.y.y.y.y.y.y.y.y.y.y.y.y.y.y.y.y.y.",
"y.y.y.y.y.y.y.y.y.y.> $ : y.y.y.y.y.y.y.y.y.y.y.y.y.y.y.y.y.y.y.",
"y.y.y.y.y.y.y.y.y.y.1 y.y.y.y.y.y.y.y.y.y.y.y.y.y.y.; y.y.y.y.y.",
"y.y.y.y.y.y.y.y.y.y.  7 * y.y.y.y.y.y.y.y.y.y.# = 6 y.y.y.y.y.y.",
"y.y.y.y.y.y.y.y.y.y.y.+ , 8 9 - y.y.y.5 9 9 < @ y.y.y.y.y.y.y.y.",
"y.y.y.y.y.y.y.y.y.y.y.y.y.+ % % 4 & % y.y.y.y.y.y.y.y.y.y.y.y.y.",
"y.y.y.y.y.y.y.y.y.y.y.y.y.y.y.y.4 y.y.y.y.y.y.y.y.y.y.y.y.y.y.y.",
"y.y.y.y.y.y.y.y.y.y _  .` p y.y.2 0 y.e U ' o.p y.y.y.y.y.y.y.y.",
"y.y.y.y.y.y.y.y.N $.T ] Y $.x O 1 u f 6.G 2.%.9.! o y.y.y.y.y.y.",
"y.y.y.y.y.y.y.i M ` @.g 5.W } <.M *.&.8.1.e.( D >.b y.y.y.y.y.y.",
"y.y.y.y.y.y.y.R B $.j q.[ e.e.{ k { Q 8.#.4./ e.e.N y.y.y.y.y.y.",
"y.y.y.y.y.y.X z ! z ;.=.0.S S 5.} e.e.I =.Q 4.x 9.m s y.y.y.y.y.",
"y.y.y.y.y.y.X V J O.Z r.A :.3.W q.x 1.e.r.6.K e.>.l a y.y.y.y.y.",
"y.y.y.y.y.y.. V J ~ 0.6.k 0...Q r.9.x e.C =.q.h q.$.t y.y.y.y.y.",
"y.y.y.y.y.y.y.v c @.l 4.Z 0.#.0.k 5.e.0.1.I +.&.) ^ y.y.y.y.y.y.",
"y.y.y.y.y.y.y.y.$.$.O.~ w.3.e.n ( w.A <.G 4.( 7.E r y.y.y.y.y.y.",
"y.y.y.y.y.y.y.y.x ' F H P e.[ e.7.[ 0.I #.#./ $.d y.y.y.y.y.y.y.",
"y.y.y.y.y.y.y.y.y.L b | M q.+.,.-.E / e.X.y.y.y.y.y.y.y.y.y.y.y.",
"y.y.y.y.y.y.y.y.y.y.y.y.y.y.y.y.y.y.y.y.y.y.y.y.y.y.y.y.y.y.y.y.",
"y.y.y.y.y.y.y.y.y.y.y.y.y.y.y.y.y.y.y.y.y.y.y.y.y.y.y.y.y.y.y.y.",
"y.y.y.y.y.y.y.y.y.y.y.y.y.y.y.y.y.y.y.y.y.y.y.y.y.y.y.y.y.y.y.y.",
"y.y.y.y.y.y.y.y.y.y.y.y.y.y.y.y.y.y.y.y.y.y.y.y.y.y.y.y.y.y.y.y.",
"y.y.y.y.y.y.y.y.y.y.y.y.y.y.y.y.y.y.y.y.y.y.y.y.y.y.y.y.y.y.y.y.",
"y.y.y.y.y.y.y.y.y.y.y.y.y.y.y.y.y.y.y.y.y.y.y.y.y.y.y.y.y.y.y.y.",
"y.y.y.y.y.y.y.y.y.y.y.y.y.y.y.y.y.y.y.y.y.y.y.y.y.y.y.y.y.y.y.y.",
"y.y.y.y.y.y.y.y.y.y.y.y.y.y.y.y.y.y.y.y.y.y.y.y.y.y.y.y.y.y.y.y.",
"y.y.y.y.y.y.y.y.y.y.y.y.y.y.y.y.y.y.y.y.y.y.y.y.y.y.y.y.y.y.y.y.",
"y.y.y.y.y.y.y.y.y.y.y.y.y.y.y.y.y.y.y.y.y.y.y.y.y.y.y.y.y.y.y.y."
};
