/* XPM */
static char *_b30937fe7be4af5c6f68490ef172735eXN7gsv6ZdmWFmBM[] = {
/* columns rows colors chars-per-pixel */
"32 32 15 1 ",
"  c None",
". c gray9",
"X c #2C2C2C",
"o c #373737",
"O c #3E3E3E",
"+ c #4D362A",
"@ c gray35",
"# c #9C6548",
"$ c #C68940",
"% c #DE9E55",
"& c #EDAB62",
"* c #009DA6",
"= c #818181",
"- c #B1B1B1",
"; c #F4F4F4",
/* pixels */
"                                ",
"                .               ",
"               .%.              ",
"               ...              ",
"               .@@.             ",
"               .O@@.            ",
"              ..&O@.            ",
"             .&X$X&.            ",
"            .&#X$X#&.           ",
"           ..XXX$XXX+.          ",
"          .&@X%%$%%X@&.         ",
"         ..$OX%#$#%XO$..        ",
"         .&XXX%###%XXX&.        ",
"       ...&X@X&%%%&X@X&...      ",
"       .---XOX$$@@$XOX---.      ",
"       .---XOOX&&O@XOX---.      ",
"       .==&XOOX$$OOXOX&==.      ",
"       ...&$XXX$$XXXX$&...      ",
"         .&#X&&&@&&&X#&.        ",
"       ...&$X%$$@@$%X$&...      ",
"       .---#X%$$O@@%X#---.      ",
"       .---$X&&&OOO&X$---.      ",
"       .==&#X#o#o#o#X#&==.      ",
"       ...&+X#$$$$$#X+&...      ",
"         .&&&&&&&&&&&&&.        ",
"         .$$$$$$$$$$$$$.        ",
"         *.#o#o###o#o#.*        ",
"         *;$#$#$$$#$#$;*        ",
"         **;;;;;;;;;;;**        ",
"          *************         ",
"                                ",
"                                "
};
