/* XPM */
static char *eda4399d6f0841c1cb471b2d85237ecchB2OQ1xei5vEKEo6[] = {
/* columns rows colors chars-per-pixel */
"32 32 15 1 ",
"  c None",
". c gray9",
"X c #2C2C2C",
"o c #373737",
"O c #3E3E3E",
"+ c #4D362A",
"@ c gray35",
"# c #9C6548",
"$ c #C68940",
"% c #DE9E55",
"& c #EDAB62",
"* c #009DA6",
"= c #818181",
"- c #B1B1B1",
"; c #F4F4F4",
/* pixels */
"                                ",
"                                ",
"                                ",
"            ...                 ",
"            .&@.                ",
"            .$@@.               ",
"            .$.@@.              ",
"            .$.O@.              ",
"           .&$O@.               ",
"      ... .%$$%.                ",
"     .@&. .%##%@.  ..           ",
"    .@@$@..&%%&@@..&@.          ",
"   .@@O$@@.$$$$@@@.$@@. .       ",
"  ..%%%$@@@X##XO@@-$.@@.&.      ",
" .&XX##$O@@@$$&OO@-$XO@.$@.     ",
" .&+&$%$OO@@@$+OO@=$OO&.$@@.    ",
" .&+&$%$%$+#$$+OO++$O+$+$O@@... ",
" .&+&$%$%$+#$$OO%$%$%$#&$&O@@&#.",
" .&+&&&&&&+$##O$%$%$%$#$&&$$$#. ",
" .&+#o##o#+$%$%$%$%$%$#&&##...  ",
" .&+#$$$$#XX#####XX###&$#..     ",
" .&&&&&&&X--X&&&X--X&&$#.       ",
" .$$$$$$$X--X$$$X--X$$#.        ",
" .##o##o#X==X#o#X==X##.;        ",
" ;.$#$$#$$$$$$#$$$$$#.;;        ",
"  ;;;;;;;;;;;;;;;;;;;;;         ",
"  *******************           ",
"    ***************             ",
"                                ",
"                                ",
"                                ",
"                                "
};
