/* XPM */
static char *_c087055304e40ccdeefdd775d012c7e0lJGqqfO53HFYRwq[] = {
/* columns rows colors chars-per-pixel */
"32 32 15 1 ",
"  c None",
". c gray9",
"X c #2C2C2C",
"o c #373737",
"O c #3E3E3E",
"+ c #4D362A",
"@ c gray35",
"# c #9C6548",
"$ c #C68940",
"% c #DE9E55",
"& c #EDAB62",
"* c #009DA6",
"= c #818181",
"- c #B1B1B1",
"; c #F4F4F4",
/* pixels */
"                                ",
"                                ",
"                                ",
"                 ...            ",
"                .@&.            ",
"               .@@$.            ",
"              .@@.$.            ",
"              .@O.$.            ",
"               .@O$&.           ",
"                .%$$%. ...      ",
"           ..  .@%##%. .&@.     ",
"          .@&..@@&%%&..@$@@.    ",
"       . .@@$.@@@$$$$.@@$O@@.   ",
"      .&.@@.$-@@OX##X@@@$%%%..  ",
"     .@$.@OX$-@OO&$$@@@O$##XX&. ",
"    .@@$.&OO$=@OO+$@@@OO$%$&+&. ",
" ...@@O$+$+O$++OO+$$#+$%$%$&+&. ",
".#&@@O&$&#$%$%$%OO$$#+$%$%$&+&. ",
" .#$$$&&$#$%$%$%$O##$+&&&&&&+&. ",
"  ...##&&#$%$%$%$%$%$+#o##o#+&. ",
"     ..#$&###XX#####XX#$$$$#+&. ",
"       .#$&&X--X&&&X--X&&&&&&&. ",
"        .#$$X--X$$$X--X$$$$$$$. ",
"        ;.##X==X#o#X==X#o##o##. ",
"        ;;.#$$$$$#$$$$$$#$$#$.; ",
"         ;;;;;;;;;;;;;;;;;;;;;  ",
"           *******************  ",
"             ***************    ",
"                                ",
"                                ",
"                                ",
"                                "
};
