/* XPM */
static char *_50718a30e0a4279baf552a414b1014dIBSMaYglORq8hG14[] = {
/* columns rows colors chars-per-pixel */
"32 32 14 1 ",
"  c None",
". c gray9",
"X c #2C2C2C",
"o c #373737",
"O c #3E3E3E",
"+ c gray35",
"@ c #9C6548",
"# c #C68940",
"$ c #DE9E55",
"% c #EDAB62",
"& c #009DA6",
"* c #818181",
"= c #B1B1B1",
"- c #F4F4F4",
/* pixels */
"                                ",
"                                ",
"               ..               ",
"              .++.              ",
"             .++O.              ",
"            ..+O%X...           ",
"          ..X%%X#X%%X..         ",
"         .#X@$#X#X#$@X#.        ",
"         .%X@@XX#XX@@X%.        ",
"         .%X@X$$#$$X@X%.        ",
"       ...%X#X$@#@$X#X%...      ",
"       .===X#X$@@@$X#X===.      ",
"       .===@$X%$$$%X$@===.      ",
"       .**%@XX#####XX@%**.      ",
"       ...%X%+++++++%X%...      ",
"         .%X#OOOOOOO#X%.        ",
"       ...%@XOOO%OOOX@%...      ",
"       .===@XXOO#OOXX@===.      ",
"       .===@X%+++++%X@===.      ",
"       .**%@X#OOOOO#X@%**.      ",
"       ...%@#XOOOOOX#@%...      ",
"         .%%@$OOOOO$@%%.        ",
"         .@%%@#OOO#@%%@.        ",
"         .o@%%@X#X@%%@o.        ",
"         .##@%%X+X%%@##.        ",
"         &-#o@%%+%%@o#-&        ",
"         &&-##@X+X@##-&&        ",
"          &&-##XOX##-&&         ",
"           &&--X%X--&&          ",
"            &&&X%X&&&           ",
"               .@.              ",
"                .               "
};
