/* XPM */
static char *result[] = {
/* columns rows colors chars-per-pixel */
"32 32 230 2 ",
"   c #142036",
".  c #284F18",
"X  c #285518",
"o  c #2F6A1D",
"O  c #36621D",
"+  c #37631E",
"@  c #30661D",
"#  c #36651E",
"$  c #316C1E",
"%  c #326F1F",
"&  c #376A20",
"*  c #367821",
"=  c #397922",
"-  c #1D2B4B",
";  c #212C50",
":  c #2D2D53",
">  c #3B305F",
",  c #283E6C",
"<  c #293E6D",
"1  c #3B3165",
"2  c #2D4071",
"3  c #2E4073",
"4  c #304073",
"5  c #314073",
"6  c #324173",
"7  c #324174",
"8  c #324175",
"9  c #334175",
"0  c #304276",
"q  c #334277",
"w  c #344176",
"e  c #354176",
"r  c #344276",
"t  c #334279",
"y  c #364278",
"u  c #34437A",
"i  c #35437B",
"p  c #36437C",
"a  c #37437E",
"s  c #394379",
"d  c #3A4379",
"f  c #3A437B",
"g  c #39447D",
"h  c #38447F",
"j  c #39447F",
"k  c #3D447C",
"l  c #3D447D",
"z  c #3E447D",
"x  c #40457F",
"c  c #398023",
"v  c #3B8525",
"b  c #3F8C27",
"n  c #478227",
"m  c #408626",
"M  c #439129",
"N  c #4C912B",
"B  c #4B962C",
"V  c #4C972C",
"C  c #489E2C",
"Z  c #4C9D2D",
"A  c #4D9F2D",
"S  c #4DA22E",
"D  c #4DA82F",
"F  c #4DAB2F",
"G  c #4EAB2F",
"H  c #4EAC30",
"J  c #558B5E",
"K  c #3A4580",
"L  c #3B4481",
"P  c #3D4681",
"I  c #3C4582",
"U  c #3F4582",
"Y  c #3C4683",
"T  c #3D4683",
"R  c #454080",
"E  c #434780",
"W  c #424781",
"Q  c #404583",
"!  c #454682",
"~  c #424785",
"^  c #444685",
"/  c #424880",
"(  c #484984",
")  c #414788",
"_  c #434889",
"`  c #47498C",
"'  c #4A4A88",
"]  c #4D4888",
"[  c #4F498B",
"{  c #49488D",
"}  c #4A4A8F",
"|  c #50498B",
" . c #564A8F",
".. c #514D8F",
"X. c #4D4A90",
"o. c #4F4A90",
"O. c #4F4B93",
"+. c #4D4C92",
"@. c #504A91",
"#. c #574C97",
"$. c #584B91",
"%. c #594B92",
"&. c #584B93",
"*. c #5A4C92",
"=. c #5D4C95",
"-. c #5E4C96",
";. c #514C99",
":. c #534C98",
">. c #534D98",
",. c #524D99",
"<. c #554D9A",
"1. c #564D9B",
"2. c #554E9C",
"3. c #564F9E",
"4. c #5E4F9F",
"5. c #5B5093",
"6. c #5D519A",
"7. c #59509F",
"8. c #624D99",
"9. c #634E9A",
"0. c #654F9A",
"q. c #664F9C",
"w. c #6B539C",
"e. c #6A509F",
"r. c #68529E",
"t. c #5B50A1",
"y. c #5A50A3",
"u. c #5C50A4",
"i. c #5F51A7",
"p. c #6E51A2",
"a. c #6F51A3",
"s. c #6052A9",
"d. c #6152A9",
"f. c #6952A8",
"g. c #7152A5",
"h. c #7352A6",
"j. c #7459A6",
"k. c #7653A8",
"l. c #7753A9",
"z. c #7754A9",
"x. c #7853AA",
"c. c #7B54AC",
"v. c #7C55AE",
"b. c #7E57AE",
"n. c #7F56AF",
"m. c #6F55B1",
"M. c #7B57B5",
"N. c #7358B1",
"B. c #8054A1",
"V. c #9459AD",
"C. c #945CAE",
"Z. c #8055B0",
"A. c #8155B1",
"S. c #8256B2",
"D. c #8357B3",
"F. c #8157B7",
"G. c #8556B4",
"H. c #8657B5",
"J. c #8857B6",
"K. c #865BB4",
"L. c #865CB4",
"P. c #8858B7",
"I. c #8B57B8",
"U. c #8458B8",
"Y. c #855FB8",
"T. c #8659BC",
"R. c #855ABD",
"E. c #8C59B9",
"W. c #8D59BA",
"Q. c #885EBA",
"!. c #8B5ABF",
"~. c #8C59BC",
"^. c #8F5ABC",
"/. c #915ABD",
"(. c #925ABE",
"). c #935ABE",
"_. c #8F60BB",
"`. c #9262BD",
"'. c #9462BF",
"]. c #8F5BC2",
"[. c #925BC1",
"{. c #955BC1",
"}. c #915CC3",
"|. c #945CC0",
" X c #955CC3",
".X c #975CC2",
"XX c #925CC4",
"oX c #955CC5",
"OX c #995CC4",
"+X c #9A5CC5",
"@X c #9B5DC5",
"#X c #995DC7",
"$X c #A05EC9",
"%X c #A15EC9",
"&X c #A15ECA",
"*X c #A25ECA",
"=X c #A25FCB",
"-X c #A35FCB",
";X c #A35FCD",
":X c #A45FCC",
">X c #A45FCD",
",X c #A55FCD",
"<X c #9965C2",
"1X c #9A66C3",
"2X c #9F67C7",
"3X c #A061C8",
"4X c #A460CB",
"5X c #A760CD",
"6X c #A560CE",
"7X c #A660CE",
"8X c #A760CE",
"9X c #A860CF",
"0X c #A861CF",
"qX c #A961CF",
"wX c #AE65CF",
"eX c #A268C9",
"rX c #B069CF",
"tX c #AC63D2",
"yX c #AB67D0",
"uX c #AC6AD1",
"iX c #AC6CD1",
"pX c #AE6CD2",
"aX c #B166D6",
"sX c #B367D7",
"dX c #B56BD9",
"fX c #B76FD9",
"gX c #B86FDA",
"hX c #BC6EDE",
"jX c #BD6EDE",
"kX c None",
/* pixels */
"kXkXkXkXkXkXkXkXkXkXkXkXkXkXkXkXkXkXkXkXkXkXkXkXkXkXkXkXkXkXkXkX",
"kXkXkXkXkXkXkXkXkXkXkXkXkXkXkXkXkXkXkXkXkXkXkXkXkXkXkXkXkXkXkXkX",
"kXkXkXkXkXkXkXkXkXkXkXkXkXkXkXkXkXkXkXkXkXkXkXkXkXkXkXkXkXkXkXkX",
"kXkXkXkXkXkXkXkXkXkXkXkXkXkXkXkXkXkXkXkXkXkXkXkXkXkXkXkXkXkXkXkX",
"kXkXkXkXkXkXkXkXkXkXkXn kXkXkXkXkXkXkXkXkXkXkX% o kXkXkXkXkXkXkX",
"kXkXkXkXkXkXkXkXkXkXA G . kXkXkXkXkXkXkXkXkXm O + X kXkXkXkXkXkX",
"kXkXkXkXkXkXkXkXkXkXkXD H * kXkXkXkXkXkXkXC kXkXkXS kXkXkXkXkXkX",
"kXkXkXkXkXkXkXkXkXkXkXkX& N F c kXkX= M kXkXkXb kXV kXkXkXkXkXkX",
"kXkXkXkXkXkXkXkXkXkXkXkXkXkXkX@ v $ kXkXkXkXkX# Z kXkXkXkXkXkXkX",
"kXkXkXkXkXkXkXkXkXkXkXkXkXkXkXkXB kXkXkXkXkXkXkXkXkXkXkXkXkXkXkX",
"kXkXkXkXkXkXkXkXkXkXkXkXkXkXV.B.S C.R kXkXkXkXkXkXkXkXkXkXkXkXkX",
"kXkXkXkXkXkXkXkXkXkXkXw.j.L.7 b.J ` @X6.R.> kXkXkXkXkXkXkXkXkXkX",
"kXkXkXkXkXkXkXkXkXkXE |.v.1Xq *Xd ,XuXa.<Xf M.kXkXkXkXkXkXkXkXkX",
"kXkXkXkXkXkXkXkXkXwXx e dX~ d.U w :Xl 8X, OX=.A.kXkXkXkXkXkXkXkX",
"kXkXkXkXkXkXkXkX  r.sX8X#.3.-XXXY < F.@.9X9.o.@X1 kXkXkXkXkXkXkX",
"kXkXkXkXkXkXkXkX5.z.^.2Xt f.0X..yXeX%..X! N.}.%Xg kXkXkXkXkXkXkX",
"kXkXkXkXkXkXkXrX0Xg.z 9 &.] fXS.*.t./._ tXW h.P.y.{ kXkXkXkXkXkX",
"kXkXkXkXkXkXkX`. .9Xz <.H.9X2 oXX.=X$X) (.U.T [.K i kXkXkXkXkXkX",
"kXkXkXkXkXkX: Z.aXK.3Xl.O.J.5 9XQ.[ h ].&Xc.4.Y.I +.; kXkXkXkXkX",
"kXkXkXkXkXkX$.f k T.' 4Xx.| gX,.7XiX4 r 6 2.>Xi.s.j - kXkXkXkXkX",
"kXkXkXkXkXkXa #Xs 9X^ -Xx.-.&X3 D.E.hX( jXW.:.s.p L kXkXkXkXkXkX",
"kXkXkXkXkXkXkXkX).q.p.8.'._.6Xu k.qX/ m.e.!.P ;.kXkXkXkXkXkXkXkX",
"kXkXkXkXkXkXkXkXkX+X5XpX>.1. XU n.{.7X8 ~.0 7.kXkXkXkXkXkXkXkXkX",
"kXkXkXkXkXkXkXkXkXkXkXkX;XQ u.G.0.I.y } kXkXkXkXkXkXkXkXkXkXkXkX",
"kXkXkXkXkXkXkXkXkXkXkXkXkXkXkXkXkXkXkXkXkXkXkXkXkXkXkXkXkXkXkXkX",
"kXkXkXkXkXkXkXkXkXkXkXkXkXkXkXkXkXkXkXkXkXkXkXkXkXkXkXkXkXkXkXkX",
"kXkXkXkXkXkXkXkXkXkXkXkXkXkXkXkXkXkXkXkXkXkXkXkXkXkXkXkXkXkXkXkX",
"kXkXkXkXkXkXkXkXkXkXkXkXkXkXkXkXkXkXkXkXkXkXkXkXkXkXkXkXkXkXkXkX",
"kXkXkXkXkXkXkXkXkXkXkXkXkXkXkXkXkXkXkXkXkXkXkXkXkXkXkXkXkXkXkXkX",
"kXkXkXkXkXkXkXkXkXkXkXkXkXkXkXkXkXkXkXkXkXkXkXkXkXkXkXkXkXkXkXkX",
"kXkXkXkXkXkXkXkXkXkXkXkXkXkXkXkXkXkXkXkXkXkXkXkXkXkXkXkXkXkXkXkX",
"kXkXkXkXkXkXkXkXkXkXkXkXkXkXkXkXkXkXkXkXkXkXkXkXkXkXkXkXkXkXkXkX"
};
