/* XPM */
static char *_149178d4f614f4a825253822de87f85GVsN285sXEt2R3s8[] = {
/* columns rows colors chars-per-pixel */
"32 32 146 2 ",
"   c None",
".  c #6C7179",
"X  c #345C90",
"o  c #5A7397",
"O  c #757B85",
"+  c #487FA8",
"@  c #569AC5",
"#  c #4786D3",
"$  c #4886D2",
"%  c #4789D2",
"&  c #4B8BD4",
"*  c #4E8ED9",
"=  c #518CD4",
"-  c #4C95D7",
";  c #4D93D9",
":  c #4F98DB",
">  c #5192D6",
",  c #5C93D6",
"<  c #5194DA",
"1  c #559CDD",
"2  c #5A9DDE",
"3  c #5CA2DE",
"4  c #60A1DB",
"5  c #6DABDA",
"6  c #79A6DB",
"7  c #7FA8DC",
"8  c #5C9FE2",
"9  c #5CA4E2",
"0  c #5EA9E5",
"q  c #62ACE6",
"w  c #6AACE2",
"e  c #62ADE9",
"r  c #72AFE3",
"t  c #6FB3E7",
"y  c #65B3EA",
"u  c #6AB6EC",
"i  c #66B9ED",
"p  c #6BB9ED",
"a  c #7DB6E4",
"s  c #74B7E8",
"d  c #71BCED",
"f  c #79BEEC",
"g  c #6CB7F0",
"h  c #65B9F0",
"j  c #6CBAF1",
"k  c #6DB8F0",
"l  c #6FBDF1",
"z  c #6BB8F0",
"x  c #72BAF1",
"c  c #75BBF1",
"v  c #72BCF0",
"b  c #72BDF0",
"n  c #72BFF0",
"m  c #75BCF0",
"M  c #74BBF1",
"N  c #78BCF0",
"B  c #78BFF1",
"V  c #76C5EF",
"C  c #7DC1ED",
"Z  c #77C3F0",
"A  c #75C5F1",
"S  c #79C5F2",
"D  c #7CC9F3",
"F  c #7CCAF2",
"G  c #7CCAF3",
"H  c #7DCBF2",
"J  c #7ECDF1",
"K  c #7ACAF4",
"L  c #7FCDF4",
"P  c #8F96A2",
"I  c #969FAC",
"U  c #999EA9",
"Y  c #ABB0BD",
"T  c #87A1C4",
"R  c #82AFDD",
"E  c #82BFED",
"W  c #92B5E1",
"Q  c #BEC1CF",
"!  c #8BC2ED",
"~  c #96C0E8",
"^  c #8DC5F0",
"/  c #82CFF3",
"(  c #82CCF2",
")  c #86CCF1",
"_  c #80CCF4",
"`  c #9BCCF0",
"'  c #89D4F3",
"]  c #88D7F7",
"[  c #8BDAF5",
"{  c #8ED9F7",
"}  c #8DDAF7",
"|  c #8EDAF7",
" . c #8FDAF7",
".. c #8EDCF8",
"X. c #91DEF7",
"o. c #94DBF7",
"O. c #90DEF8",
"+. c #94DFFA",
"@. c #92DEF8",
"#. c #B8CEEC",
"$. c #A5D0EF",
"%. c #A6CDF0",
"&. c #A5D1F0",
"*. c #ACD3F3",
"=. c #B2D5F3",
"-. c #BCDAF5",
";. c #93E0F9",
":. c #93E0FA",
">. c #95E1F8",
",. c #95E1F9",
"<. c #94E2F8",
"1. c #94E2F9",
"2. c #95E3F8",
"3. c #96E3F9",
"4. c #96E2F8",
"5. c #97E1FB",
"6. c #95E2FA",
"7. c #95E3FA",
"8. c #97E2FA",
"9. c #97E3FA",
"0. c #96E3FB",
"q. c #97E4F9",
"w. c #96E4F9",
"e. c #97E4FA",
"r. c #96E4FB",
"t. c #95E4F8",
"y. c #9BE3F8",
"u. c #98E4F9",
"i. c #98E4FB",
"p. c #9CE5FC",
"a. c #B8E5F6",
"s. c #C9CDDA",
"d. c #D7DCEA",
"f. c #D8DDEC",
"g. c #C0D5F0",
"h. c #C2DBF5",
"j. c #CFDDF2",
"k. c #D4DEF3",
"l. c #DAE0EE",
"z. c #CDE1F6",
"x. c #D1E5F5",
"c. c #D5E8F7",
"v. c #DFEBFB",
"b. c #E7EBF9",
"n. c #E8EBF9",
"m. c #E8ECF9",
/* pixels */
"              u p ;.<.c.a.w.[ u u u <.m.>.>.w.;.H +             ",
"              % % % % = = & & % % % i.u.>.= & & & X             ",
"              & y $ 0 y ; $ # & # y v t.i.u & q 1 X             ",
"              & < 0 u p e 1 $ % 0 ] i w.S g q y 1 X             ",
"              $ 8 ) p p p 9 % & / u.i J 3 i z p 8 X             ",
"              $ p >.z p u q < & w.w.i i % y p u 1 X             ",
"              # e X.y i p p y * r.>.i i # y p p 1 X             ",
"              # % u & q t H ) - w.;.i i % y p u 1 X             ",
"              # # g & q p p p v ;.g g p # u @.4 $ X             ",
"              $ z g & q p F | x >.$ i r.% u X.4 # X             ",
"              # g i.> # 9 F | v >.h g r.% y z p 8 X             ",
"              # g p u ; 9 F | v >.i g r.s p p p 1 X             ",
"              # g +.d ; 9 F ..d >.i u r.z z z < $ X             ",
"              # z p d ; 3 p p d i.i z v & u z ; $ X             ",
"              # x u u ; 9 u z d +.i u p q u p e < X             ",
"              # z ( p ; 9 u z v <.9 p ( z z z 9 ; X             ",
"              # z r.d 1 q g z M ' $ u w.M x S 3 & X             ",
"              # z w.p p y p m z p & h >.N M X.A 1 X             ",
"              # z u.p p 1 w | z z p z p.M z ..A 2 X             ",
"              # g r.d u p D | d >.p v y.M p i p 1 X             ",
"              # z r.p p u i g g p = d u z z ..V 1 X             ",
"              # z p i i 1 1 h z g & h h h h h p 1 X             ",
"              # p p p i 1 w o.g d # i z z g * #.W R Q           ",
"          d.  # % i t u 1 4 N N @.$ h u z x * w *.I             ",
"            Q $ # g u u 1 2 d p v & i z z p g.! *.U             ",
"              # # u =.E 2 < ( =.i 0 -.z z 1 6 u r o   P         ",
"          .   W W 9 %.f a W &.*.` i *.z z % 7 s a T O O         ",
"          Y   m.m.6 ! ^ h.n.c.` b.^ ^ ~ e % j.$.-.b.s.          ",
"            b.b.m.b.b.b.m.m.m.m.m.m.m.m., , k.m.b.b.m.f.        ",
"          b.v.m.m.m.b.m.m.m.m.v.m.m.m.m.m.m.m.m.m.b.b.v.l.      ",
"        b.g i b.b.m.b.b.b.m.z.f m.m.m.m.m.m.b.b.m.b.z.5         ",
"            i i m.b.b.^ h i p m m.m.h h m.m.C p *.-.@           "
};
