/* XPM */
static char *_563745c68ef4091ee98ec8a9e392818gccVFHHZK3i1PXdu[] = {
/* columns rows colors chars-per-pixel */
"32 32 3 1 ",
"  c #A6D536",
". c #BDD838",
"X c #C4E55A",
/* pixels */
"................................",
"................................",
"................................",
"................................",
"................................",
"................................",
"................................",
"...............XXXX..    ..XXXXX",
"...............XXXX..    ..XXXXX",
".................XXXX..  XXXX...",
".................XXXX..  XXXX...",
".............    XXXXXX..XX.....",
".............    XXXXXX..XX.....",
"...............    XX...........",
"...............    XX...........",
".............XXXX...............",
".............XXXX...............",
".............  XXXX.............",
".............  XXXX.............",
"...............XX...............",
"...............XX...............",
"................................",
"................................",
"................................",
"................................",
"................................",
"................................",
"................................",
"................................",
"                                ",
"                                ",
"                                "
};
