/* XPM */
static char *_4c7d4acd65c4583ae5f764468e1399bUTuwBGHLPLE7fzuD[] = {
/* columns rows colors chars-per-pixel */
"32 32 3 1 ",
"  c #76D054",
". c #A6D536",
"X c #C4E55A",
/* pixels */
"................................",
"................................",
"................................",
"................................",
"................................",
"................................",
"................................",
"................................",
"................................",
"...............XXXX........XXXXX",
"...............XXXX........XXXXX",
".................XXXX....XXXX   ",
".................XXXX....XXXX   ",
"...............  XXXXXX..XX  ...",
"...............  XXXXXX..XX  ...",
"...............    XX...........",
"...............    XX...........",
".............XXXX...............",
".............XXXX...............",
"...........  ..XXXX.............",
"...........  ..XXXX.............",
"...........    XX...............",
"...........    XX...............",
"................................",
"................................",
"................................",
"................................",
"................................",
"................................",
"................................",
"................................",
"................................"
};
