/* XPM */
static char *_dae384115044c29aa00d2478ae4d3ceMuNPDYSeJyrp8XqW[] = {
/* columns rows colors chars-per-pixel */
"32 32 2 1 ",
"  c None",
". c #A6D536",
/* pixels */
"                                ",
"                                ",
"                                ",
"                                ",
"                                ",
"                                ",
"                                ",
"                                ",
"                                ",
"                                ",
"                                ",
"                                ",
"                                ",
"................................",
"................................",
"................................",
"................................",
"................................",
"................................",
"................................",
"................................",
"................................",
"................................",
"................................",
"................................",
"................................",
"................................",
"................................",
"................................",
"................................",
"................................",
"................................"
};
