/* XPM */
static char *_2d5d1df037146ccb91365378ef52b46fs7naDTYj2kZ0Wmq[] = {
/* columns rows colors chars-per-pixel */
"32 32 206 2 ",
"   c None",
".  c #004A4A",
"X  c #005953",
"o  c #006265",
"O  c #006C66",
"+  c #006D67",
"@  c #00736A",
"#  c #007678",
"$  c #00777A",
"%  c #820000",
"&  c #890000",
"*  c #8F0000",
"=  c #960000",
"-  c #9E0B00",
";  c #861700",
":  c #931900",
">  c #A10000",
",  c #A00D00",
"<  c #B00000",
"1  c #BE1000",
"2  c #B73100",
"3  c #B83E00",
"4  c #C30000",
"5  c #C40000",
"6  c #C50000",
"7  c #C60000",
"8  c #C70000",
"9  c #C90000",
"0  c #CA0000",
"q  c #CC0000",
"w  c #CD0000",
"e  c #CF0000",
"r  c #CD0200",
"t  c #CF0300",
"y  c #CF0700",
"u  c #CD0800",
"i  c #CF0A00",
"p  c #CC0F00",
"a  c #D00000",
"s  c #D20000",
"d  c #D40000",
"f  c #D50200",
"g  c #D40300",
"h  c #D50600",
"j  c #D20B00",
"k  c #D50D00",
"l  c #D60C00",
"z  c #D60F00",
"x  c #CB1200",
"c  c #CE1500",
"v  c #D51000",
"b  c #D71100",
"n  c #DA1700",
"m  c #DC1A00",
"M  c #D91D00",
"N  c #DB1C00",
"B  c #DA1F00",
"V  c #DE1D00",
"C  c #C12200",
"Z  c #C42900",
"A  c #C62F00",
"S  c #D02200",
"D  c #D92100",
"F  c #DB2000",
"G  c #DD2000",
"H  c #DF2100",
"J  c #DF2400",
"K  c #D52C00",
"L  c #D82900",
"P  c #DB2A00",
"I  c #DD2800",
"U  c #D63000",
"Y  c #D43200",
"T  c #DA3200",
"R  c #DB3400",
"E  c #D73800",
"W  c #D93E00",
"Q  c #DB3E00",
"!  c #E12500",
"~  c #E02700",
"^  c #E22700",
"/  c #E32800",
"(  c #E22A00",
")  c #E42800",
"_  c #E62F00",
"`  c #E13000",
"'  c #E23000",
"]  c #E63200",
"[  c #E63500",
"{  c #E53600",
"}  c #E43700",
"|  c #EB3500",
" . c #E53B00",
".. c #E13F00",
"X. c #E83D00",
"o. c #ED3C00",
"O. c #8C541D",
"+. c #D44700",
"@. c #EA4000",
"#. c #EB4100",
"$. c #EF4200",
"%. c #E94600",
"&. c #E14900",
"*. c #E24E00",
"=. c #E44D00",
"-. c #EE4800",
";. c #E84D00",
":. c #F24100",
">. c #F04200",
",. c #F44200",
"<. c #F44500",
"1. c #F64600",
"2. c #F74800",
"3. c #F74A00",
"4. c #F74B00",
"5. c #F34F00",
"6. c #F74C00",
"7. c #F84A00",
"8. c #F84C00",
"9. c #F84D00",
"0. c #FB4E00",
"q. c #E95D00",
"w. c #F35300",
"e. c #F45300",
"r. c #F65500",
"t. c #F75700",
"y. c #FA5300",
"u. c #FC5300",
"i. c #FD5400",
"p. c #FD5500",
"a. c #FE5500",
"s. c #F85A00",
"d. c #F95B00",
"f. c #FF5900",
"g. c #FB5F00",
"h. c #FF5C00",
"j. c #FE5D00",
"k. c #FF5D00",
"l. c #FD5F00",
"z. c #FF5F00",
"x. c #CD6900",
"c. c #E86600",
"v. c #E86700",
"b. c #E16A00",
"n. c #FF6100",
"m. c #FF6200",
"M. c #FF6400",
"N. c #FF6600",
"B. c #FF6700",
"V. c #FF6900",
"C. c #FF6A00",
"Z. c #FF6D00",
"A. c #FF6E00",
"S. c #FF6F00",
"D. c #ED7500",
"F. c #EF7600",
"G. c #F27400",
"H. c #FF7000",
"J. c #FF7100",
"K. c #FF7200",
"L. c #FF7400",
"P. c #FF7600",
"I. c #F07D00",
"U. c #FF7B00",
"Y. c #FF7C00",
"T. c #FF7E00",
"R. c #FF7F00",
"E. c #F48600",
"W. c #F48700",
"Q. c #FF8200",
"!. c #FF8300",
"~. c #FF8500",
"^. c #FF8600",
"/. c #FF8800",
"(. c #F79200",
"). c #FD9000",
"_. c #FF9000",
"`. c #FF9200",
"'. c #FF9300",
"]. c #F99600",
"[. c #FA9700",
"{. c #FF9700",
"}. c #FF9800",
"|. c #FF9B00",
" X c #FF9D00",
".X c #FFA100",
"XX c #FFA800",
"oX c #FFAD00",
"OX c #FFAF00",
"+X c #FFB200",
"@X c #FFBB00",
"#X c #008180",
"$X c #008781",
"%X c #008983",
"&X c #008A84",
"*X c #008C84",
"=X c #008D85",
"-X c #008888",
";X c #008A89",
":X c #008D89",
">X c #00918F",
",X c #009B91",
"<X c #009F99",
"1X c #00A19A",
"2X c #00A49B",
"3X c #00A59D",
/* pixels */
"                                                                ",
"                                                                ",
"                                                                ",
"                                                                ",
"                                                                ",
"                      O               :Xo =X                    ",
"                      1XO             ,X1X                      ",
"                    3X. O @               &X                    ",
"                    ;X3X3X<X$X%X$X$X$X=X;X                      ",
"                      $ $     #X                                ",
"                          2 C O.X (.  b.                        ",
"                    ; v.  XX9.>X=.|.{.#.G.,                     ",
"                    S +X].^.5 x.;.y.>.N #.Q : +.                ",
"                  = $.C.r 6.p D.5 m.I.k.Q ' D.1                 ",
"                * N.W.4 r c r P @XW.+Xr.Z.'.^.H.                ",
"              oXY r Y R ../.j { H.D R.9 k.{ Z.9.>               ",
"              {.c.L.N.N.Z.p.) | ( u.7.4 &.<.^ h A 3             ",
"              k.m.m r n z d p.].d ( s <.Q.r V  .c %             ",
"            < l 4 P p.9 5 9 k.*.{ m.j r X.%.b R ^ r.            ",
"          Z z m.w.C.N.9 9.i i J ^.G '.d N Q.m C. X&             ",
"          - q.T i 9 K N | '.L..X^.N ^.J ^.Q.z d.d.$.            ",
"            g.U.k.R. XR.] Z.X.w.Z.4.k.X.5.N.s ] k.!             ",
"                n ' -.N.s 4.J 6.f.b >.! N.,.                    ",
"                                                                ",
"                                                                ",
"                                                                ",
"                                                                ",
"                                                                ",
"                                                                ",
"                                                                ",
"                                                                ",
"                                                                "
};
